<mxfile host="app.diagrams.net" modified="2023-11-15T12:52:25.457Z" agent="Mozilla/5.0 (Macintosh; Intel Mac OS X 10_15_7) AppleWebKit/537.36 (KHTML, like Gecko) Chrome/119.0.0.0 Safari/537.36" etag="lAKX1IpkSYu2BUISo98p" version="21.8.2" type="device">
  <diagram name="Page-1" id="cFhoA1uitKV5Xndn255D">
    <mxGraphModel dx="3468" dy="1034" grid="1" gridSize="10" guides="1" tooltips="1" connect="1" arrows="1" fold="1" page="1" pageScale="1" pageWidth="827" pageHeight="1169" math="0" shadow="0">
      <root>
        <mxCell id="0" />
        <mxCell id="1" parent="0" />
        <mxCell id="mz65zkfkWfSOpmvl6GEh-1" value="" style="rounded=1;whiteSpace=wrap;html=1;fillColor=none;" vertex="1" parent="1">
          <mxGeometry x="70" y="100" width="620" height="630" as="geometry" />
        </mxCell>
        <mxCell id="mz65zkfkWfSOpmvl6GEh-5" value="Indata from another AWS acount" style="rounded=1;whiteSpace=wrap;html=1;fillColor=#d5e8d4;strokeColor=#82b366;" vertex="1" parent="1">
          <mxGeometry x="-90" y="278" width="100" height="60" as="geometry" />
        </mxCell>
        <mxCell id="mz65zkfkWfSOpmvl6GEh-35" style="edgeStyle=orthogonalEdgeStyle;orthogonalLoop=1;jettySize=auto;html=1;startArrow=classic;startFill=1;curved=1;" edge="1" parent="1" source="mz65zkfkWfSOpmvl6GEh-6" target="mz65zkfkWfSOpmvl6GEh-11">
          <mxGeometry relative="1" as="geometry" />
        </mxCell>
        <mxCell id="mz65zkfkWfSOpmvl6GEh-57" style="edgeStyle=orthogonalEdgeStyle;orthogonalLoop=1;jettySize=auto;html=1;exitX=0.67;exitY=0;exitDx=0;exitDy=0;exitPerimeter=0;entryX=0;entryY=0.5;entryDx=0;entryDy=0;curved=1;" edge="1" parent="1" source="mz65zkfkWfSOpmvl6GEh-6" target="mz65zkfkWfSOpmvl6GEh-31">
          <mxGeometry relative="1" as="geometry" />
        </mxCell>
        <mxCell id="mz65zkfkWfSOpmvl6GEh-61" style="edgeStyle=orthogonalEdgeStyle;rounded=1;orthogonalLoop=1;jettySize=auto;html=1;startArrow=classic;startFill=1;" edge="1" parent="1" source="mz65zkfkWfSOpmvl6GEh-6" target="mz65zkfkWfSOpmvl6GEh-55">
          <mxGeometry relative="1" as="geometry" />
        </mxCell>
        <mxCell id="mz65zkfkWfSOpmvl6GEh-6" value="&lt;span style=&quot;font-size: 14px;&quot;&gt;Calculations&lt;/span&gt;" style="sketch=0;outlineConnect=0;fontColor=#232F3E;gradientColor=none;fillColor=#7AA116;strokeColor=none;dashed=0;verticalLabelPosition=bottom;verticalAlign=top;align=center;html=1;fontSize=12;fontStyle=0;aspect=fixed;pointerEvents=1;shape=mxgraph.aws4.lambda_function;points=[[0,0.2,0,0,0],[0,0.4,0,0,0],[0,0.6,0,0,0],[0,0.8,0,0,0],[0.33,0,0,0,0],[0.67,0,0,0,0],[1,0.2,0,0,0],[1,0.4,0,0,0],[1,0.6,0,0,0],[1,0.8,0,0,0]];" vertex="1" parent="1">
          <mxGeometry x="420" y="269" width="78" height="78" as="geometry" />
        </mxCell>
        <mxCell id="mz65zkfkWfSOpmvl6GEh-7" value="&lt;font style=&quot;font-size: 16px;&quot;&gt;AWS Account&lt;/font&gt;" style="text;html=1;strokeColor=none;fillColor=none;align=center;verticalAlign=middle;whiteSpace=wrap;rounded=0;" vertex="1" parent="1">
          <mxGeometry x="345" y="60" width="60" height="30" as="geometry" />
        </mxCell>
        <mxCell id="mz65zkfkWfSOpmvl6GEh-58" style="edgeStyle=orthogonalEdgeStyle;rounded=0;orthogonalLoop=1;jettySize=auto;html=1;" edge="1" parent="1" source="mz65zkfkWfSOpmvl6GEh-8" target="mz65zkfkWfSOpmvl6GEh-55">
          <mxGeometry relative="1" as="geometry" />
        </mxCell>
        <mxCell id="mz65zkfkWfSOpmvl6GEh-8" value="Indata&lt;br&gt;" style="sketch=0;points=[[0,0,0],[0.25,0,0],[0.5,0,0],[0.75,0,0],[1,0,0],[0,1,0],[0.25,1,0],[0.5,1,0],[0.75,1,0],[1,1,0],[0,0.25,0],[0,0.5,0],[0,0.75,0],[1,0.25,0],[1,0.5,0],[1,0.75,0]];outlineConnect=0;fontColor=#232F3E;fillColor=#7AA116;strokeColor=#ffffff;dashed=0;verticalLabelPosition=bottom;verticalAlign=top;align=center;html=1;fontSize=12;fontStyle=0;aspect=fixed;shape=mxgraph.aws4.resourceIcon;resIcon=mxgraph.aws4.s3;" vertex="1" parent="1">
          <mxGeometry x="120" y="269" width="78" height="78" as="geometry" />
        </mxCell>
        <mxCell id="mz65zkfkWfSOpmvl6GEh-11" value="&lt;div style=&quot;&quot;&gt;&lt;span style=&quot;background-color: initial;&quot;&gt;RDS&lt;/span&gt;&lt;/div&gt;" style="sketch=0;points=[[0,0,0],[0.25,0,0],[0.5,0,0],[0.75,0,0],[1,0,0],[0,1,0],[0.25,1,0],[0.5,1,0],[0.75,1,0],[1,1,0],[0,0.25,0],[0,0.5,0],[0,0.75,0],[1,0.25,0],[1,0.5,0],[1,0.75,0]];outlineConnect=0;fontColor=#232F3E;fillColor=#C925D1;strokeColor=#ffffff;dashed=0;verticalLabelPosition=bottom;verticalAlign=top;align=right;html=1;fontSize=12;fontStyle=0;aspect=fixed;shape=mxgraph.aws4.resourceIcon;resIcon=mxgraph.aws4.rds;" vertex="1" parent="1">
          <mxGeometry x="580" y="269" width="78" height="78" as="geometry" />
        </mxCell>
        <mxCell id="mz65zkfkWfSOpmvl6GEh-31" value="Write calculation results to Core View" style="rounded=1;whiteSpace=wrap;html=1;fillColor=#dae8fc;strokeColor=#6c8ebf;" vertex="1" parent="1">
          <mxGeometry x="730" y="150" width="120" height="60" as="geometry" />
        </mxCell>
        <mxCell id="mz65zkfkWfSOpmvl6GEh-39" style="edgeStyle=orthogonalEdgeStyle;orthogonalLoop=1;jettySize=auto;html=1;curved=1;" edge="1" parent="1" source="mz65zkfkWfSOpmvl6GEh-33" target="mz65zkfkWfSOpmvl6GEh-38">
          <mxGeometry relative="1" as="geometry" />
        </mxCell>
        <mxCell id="mz65zkfkWfSOpmvl6GEh-33" value="Commission matrix &amp;amp; sales targets" style="sketch=0;points=[[0,0,0],[0.25,0,0],[0.5,0,0],[0.75,0,0],[1,0,0],[0,1,0],[0.25,1,0],[0.5,1,0],[0.75,1,0],[1,1,0],[0,0.25,0],[0,0.5,0],[0,0.75,0],[1,0.25,0],[1,0.5,0],[1,0.75,0]];outlineConnect=0;fontColor=#232F3E;fillColor=#7AA116;strokeColor=#ffffff;dashed=0;verticalLabelPosition=bottom;verticalAlign=top;align=center;html=1;fontSize=12;fontStyle=0;aspect=fixed;shape=mxgraph.aws4.resourceIcon;resIcon=mxgraph.aws4.s3;" vertex="1" parent="1">
          <mxGeometry x="341" y="620" width="78" height="78" as="geometry" />
        </mxCell>
        <mxCell id="mz65zkfkWfSOpmvl6GEh-38" value="&lt;span style=&quot;font-size: 14px;&quot;&gt;Parsing&lt;/span&gt;" style="sketch=0;outlineConnect=0;fontColor=#232F3E;gradientColor=none;fillColor=#7AA116;strokeColor=none;dashed=0;verticalLabelPosition=bottom;verticalAlign=top;align=center;html=1;fontSize=12;fontStyle=0;aspect=fixed;pointerEvents=1;shape=mxgraph.aws4.lambda_function;points=[[0,0.2,0,0,0],[0,0.4,0,0,0],[0,0.6,0,0,0],[0,0.8,0,0,0],[0.33,0,0,0,0],[0.67,0,0,0,0],[1,0.2,0,0,0],[1,0.4,0,0,0],[1,0.6,0,0,0],[1,0.8,0,0,0]];" vertex="1" parent="1">
          <mxGeometry x="341" y="440" width="78" height="78" as="geometry" />
        </mxCell>
        <mxCell id="mz65zkfkWfSOpmvl6GEh-41" style="edgeStyle=orthogonalEdgeStyle;orthogonalLoop=1;jettySize=auto;html=1;entryX=0.5;entryY=1;entryDx=0;entryDy=0;entryPerimeter=0;curved=1;" edge="1" parent="1" source="mz65zkfkWfSOpmvl6GEh-38" target="mz65zkfkWfSOpmvl6GEh-11">
          <mxGeometry relative="1" as="geometry" />
        </mxCell>
        <mxCell id="mz65zkfkWfSOpmvl6GEh-43" value="Agent Sales Targets file upload (monthly)" style="rounded=1;whiteSpace=wrap;html=1;fillColor=#d5e8d4;strokeColor=#82b366;" vertex="1" parent="1">
          <mxGeometry x="250" y="830" width="100" height="60" as="geometry" />
        </mxCell>
        <mxCell id="mz65zkfkWfSOpmvl6GEh-44" value="Commision Matrix file upload (yearly)" style="rounded=1;whiteSpace=wrap;html=1;fillColor=#d5e8d4;strokeColor=#82b366;" vertex="1" parent="1">
          <mxGeometry x="410" y="830" width="100" height="60" as="geometry" />
        </mxCell>
        <mxCell id="mz65zkfkWfSOpmvl6GEh-49" style="edgeStyle=orthogonalEdgeStyle;orthogonalLoop=1;jettySize=auto;html=1;entryX=0;entryY=0.5;entryDx=0;entryDy=0;entryPerimeter=0;curved=1;" edge="1" parent="1" source="mz65zkfkWfSOpmvl6GEh-5" target="mz65zkfkWfSOpmvl6GEh-8">
          <mxGeometry relative="1" as="geometry" />
        </mxCell>
        <mxCell id="mz65zkfkWfSOpmvl6GEh-50" style="edgeStyle=orthogonalEdgeStyle;orthogonalLoop=1;jettySize=auto;html=1;entryX=0.25;entryY=1;entryDx=0;entryDy=0;entryPerimeter=0;curved=1;" edge="1" parent="1" source="mz65zkfkWfSOpmvl6GEh-43" target="mz65zkfkWfSOpmvl6GEh-33">
          <mxGeometry relative="1" as="geometry" />
        </mxCell>
        <mxCell id="mz65zkfkWfSOpmvl6GEh-51" style="edgeStyle=orthogonalEdgeStyle;orthogonalLoop=1;jettySize=auto;html=1;entryX=0.75;entryY=1;entryDx=0;entryDy=0;entryPerimeter=0;curved=1;" edge="1" parent="1" source="mz65zkfkWfSOpmvl6GEh-44" target="mz65zkfkWfSOpmvl6GEh-33">
          <mxGeometry relative="1" as="geometry" />
        </mxCell>
        <mxCell id="mz65zkfkWfSOpmvl6GEh-55" value="&lt;span style=&quot;font-size: 14px;&quot;&gt;Queue of&lt;br&gt;indata references &lt;br&gt;(This queue might&lt;br&gt;or might not be&amp;nbsp;&lt;br&gt;needed)&lt;br&gt;&lt;/span&gt;" style="sketch=0;points=[[0,0,0],[0.25,0,0],[0.5,0,0],[0.75,0,0],[1,0,0],[0,1,0],[0.25,1,0],[0.5,1,0],[0.75,1,0],[1,1,0],[0,0.25,0],[0,0.5,0],[0,0.75,0],[1,0.25,0],[1,0.5,0],[1,0.75,0]];outlineConnect=0;fontColor=#232F3E;fillColor=#E7157B;strokeColor=#ffffff;dashed=0;verticalLabelPosition=bottom;verticalAlign=top;align=center;html=1;fontSize=12;fontStyle=0;aspect=fixed;shape=mxgraph.aws4.resourceIcon;resIcon=mxgraph.aws4.sqs;" vertex="1" parent="1">
          <mxGeometry x="267" y="269" width="78" height="78" as="geometry" />
        </mxCell>
        <mxCell id="mz65zkfkWfSOpmvl6GEh-60" style="edgeStyle=orthogonalEdgeStyle;orthogonalLoop=1;jettySize=auto;html=1;entryX=0.5;entryY=0;entryDx=0;entryDy=0;entryPerimeter=0;curved=1;startArrow=classic;startFill=1;" edge="1" parent="1" source="mz65zkfkWfSOpmvl6GEh-6" target="mz65zkfkWfSOpmvl6GEh-8">
          <mxGeometry relative="1" as="geometry">
            <Array as="points">
              <mxPoint x="459" y="170" />
              <mxPoint x="159" y="170" />
            </Array>
          </mxGeometry>
        </mxCell>
        <mxCell id="mz65zkfkWfSOpmvl6GEh-64" value="" style="rounded=1;whiteSpace=wrap;html=1;fillColor=none;" vertex="1" parent="1">
          <mxGeometry x="1110" y="100" width="610" height="630" as="geometry" />
        </mxCell>
        <mxCell id="mz65zkfkWfSOpmvl6GEh-65" value="Indata from another AWS acount" style="rounded=1;whiteSpace=wrap;html=1;fillColor=#d5e8d4;strokeColor=#82b366;" vertex="1" parent="1">
          <mxGeometry x="940" y="278" width="100" height="60" as="geometry" />
        </mxCell>
        <mxCell id="mz65zkfkWfSOpmvl6GEh-66" style="edgeStyle=orthogonalEdgeStyle;orthogonalLoop=1;jettySize=auto;html=1;startArrow=classic;startFill=1;curved=1;" edge="1" parent="1" source="mz65zkfkWfSOpmvl6GEh-69" target="mz65zkfkWfSOpmvl6GEh-73">
          <mxGeometry relative="1" as="geometry" />
        </mxCell>
        <mxCell id="mz65zkfkWfSOpmvl6GEh-67" style="edgeStyle=orthogonalEdgeStyle;orthogonalLoop=1;jettySize=auto;html=1;exitX=0.67;exitY=0;exitDx=0;exitDy=0;exitPerimeter=0;entryX=0;entryY=0.5;entryDx=0;entryDy=0;curved=1;" edge="1" parent="1" source="mz65zkfkWfSOpmvl6GEh-69" target="mz65zkfkWfSOpmvl6GEh-74">
          <mxGeometry relative="1" as="geometry" />
        </mxCell>
        <mxCell id="mz65zkfkWfSOpmvl6GEh-68" style="edgeStyle=orthogonalEdgeStyle;rounded=1;orthogonalLoop=1;jettySize=auto;html=1;startArrow=classic;startFill=1;endArrow=none;endFill=0;" edge="1" parent="1" source="mz65zkfkWfSOpmvl6GEh-69" target="mz65zkfkWfSOpmvl6GEh-84">
          <mxGeometry relative="1" as="geometry" />
        </mxCell>
        <mxCell id="mz65zkfkWfSOpmvl6GEh-69" value="&lt;span style=&quot;font-size: 14px;&quot;&gt;Calculations&lt;/span&gt;" style="sketch=0;outlineConnect=0;fontColor=#232F3E;gradientColor=none;fillColor=#7AA116;strokeColor=none;dashed=0;verticalLabelPosition=bottom;verticalAlign=top;align=center;html=1;fontSize=12;fontStyle=0;aspect=fixed;pointerEvents=1;shape=mxgraph.aws4.lambda_function;points=[[0,0.2,0,0,0],[0,0.4,0,0,0],[0,0.6,0,0,0],[0,0.8,0,0,0],[0.33,0,0,0,0],[0.67,0,0,0,0],[1,0.2,0,0,0],[1,0.4,0,0,0],[1,0.6,0,0,0],[1,0.8,0,0,0]];" vertex="1" parent="1">
          <mxGeometry x="1410" y="269" width="78" height="78" as="geometry" />
        </mxCell>
        <mxCell id="mz65zkfkWfSOpmvl6GEh-70" value="&lt;font style=&quot;font-size: 16px;&quot;&gt;AWS Account&lt;/font&gt;" style="text;html=1;strokeColor=none;fillColor=none;align=center;verticalAlign=middle;whiteSpace=wrap;rounded=0;" vertex="1" parent="1">
          <mxGeometry x="1404" y="50" width="60" height="30" as="geometry" />
        </mxCell>
        <mxCell id="mz65zkfkWfSOpmvl6GEh-73" value="&lt;div style=&quot;&quot;&gt;&lt;span style=&quot;background-color: initial;&quot;&gt;RDS&lt;/span&gt;&lt;/div&gt;" style="sketch=0;points=[[0,0,0],[0.25,0,0],[0.5,0,0],[0.75,0,0],[1,0,0],[0,1,0],[0.25,1,0],[0.5,1,0],[0.75,1,0],[1,1,0],[0,0.25,0],[0,0.5,0],[0,0.75,0],[1,0.25,0],[1,0.5,0],[1,0.75,0]];outlineConnect=0;fontColor=#232F3E;fillColor=#C925D1;strokeColor=#ffffff;dashed=0;verticalLabelPosition=bottom;verticalAlign=top;align=right;html=1;fontSize=12;fontStyle=0;aspect=fixed;shape=mxgraph.aws4.resourceIcon;resIcon=mxgraph.aws4.rds;" vertex="1" parent="1">
          <mxGeometry x="1620" y="269" width="78" height="78" as="geometry" />
        </mxCell>
        <mxCell id="mz65zkfkWfSOpmvl6GEh-74" value="Write calculation results to Core View" style="rounded=1;whiteSpace=wrap;html=1;fillColor=#dae8fc;strokeColor=#6c8ebf;" vertex="1" parent="1">
          <mxGeometry x="1760" y="150" width="120" height="60" as="geometry" />
        </mxCell>
        <mxCell id="mz65zkfkWfSOpmvl6GEh-75" style="edgeStyle=orthogonalEdgeStyle;orthogonalLoop=1;jettySize=auto;html=1;curved=1;" edge="1" parent="1" source="mz65zkfkWfSOpmvl6GEh-76" target="mz65zkfkWfSOpmvl6GEh-77">
          <mxGeometry relative="1" as="geometry" />
        </mxCell>
        <mxCell id="mz65zkfkWfSOpmvl6GEh-76" value="Commission matrix &amp;amp; sales targets" style="sketch=0;points=[[0,0,0],[0.25,0,0],[0.5,0,0],[0.75,0,0],[1,0,0],[0,1,0],[0.25,1,0],[0.5,1,0],[0.75,1,0],[1,1,0],[0,0.25,0],[0,0.5,0],[0,0.75,0],[1,0.25,0],[1,0.5,0],[1,0.75,0]];outlineConnect=0;fontColor=#232F3E;fillColor=#7AA116;strokeColor=#ffffff;dashed=0;verticalLabelPosition=bottom;verticalAlign=top;align=center;html=1;fontSize=12;fontStyle=0;aspect=fixed;shape=mxgraph.aws4.resourceIcon;resIcon=mxgraph.aws4.s3;" vertex="1" parent="1">
          <mxGeometry x="1371" y="620" width="78" height="78" as="geometry" />
        </mxCell>
        <mxCell id="mz65zkfkWfSOpmvl6GEh-77" value="&lt;span style=&quot;font-size: 14px;&quot;&gt;Parsing&lt;/span&gt;" style="sketch=0;outlineConnect=0;fontColor=#232F3E;gradientColor=none;fillColor=#7AA116;strokeColor=none;dashed=0;verticalLabelPosition=bottom;verticalAlign=top;align=center;html=1;fontSize=12;fontStyle=0;aspect=fixed;pointerEvents=1;shape=mxgraph.aws4.lambda_function;points=[[0,0.2,0,0,0],[0,0.4,0,0,0],[0,0.6,0,0,0],[0,0.8,0,0,0],[0.33,0,0,0,0],[0.67,0,0,0,0],[1,0.2,0,0,0],[1,0.4,0,0,0],[1,0.6,0,0,0],[1,0.8,0,0,0]];" vertex="1" parent="1">
          <mxGeometry x="1371" y="440" width="78" height="78" as="geometry" />
        </mxCell>
        <mxCell id="mz65zkfkWfSOpmvl6GEh-78" style="edgeStyle=orthogonalEdgeStyle;orthogonalLoop=1;jettySize=auto;html=1;entryX=0.5;entryY=1;entryDx=0;entryDy=0;entryPerimeter=0;curved=1;" edge="1" parent="1" source="mz65zkfkWfSOpmvl6GEh-77" target="mz65zkfkWfSOpmvl6GEh-73">
          <mxGeometry relative="1" as="geometry" />
        </mxCell>
        <mxCell id="mz65zkfkWfSOpmvl6GEh-79" value="Agent Sales Targets file upload (monthly)" style="rounded=1;whiteSpace=wrap;html=1;fillColor=#d5e8d4;strokeColor=#82b366;" vertex="1" parent="1">
          <mxGeometry x="1275" y="830" width="100" height="60" as="geometry" />
        </mxCell>
        <mxCell id="mz65zkfkWfSOpmvl6GEh-80" value="Commision Matrix file upload (yearly)" style="rounded=1;whiteSpace=wrap;html=1;fillColor=#d5e8d4;strokeColor=#82b366;" vertex="1" parent="1">
          <mxGeometry x="1440" y="830" width="100" height="60" as="geometry" />
        </mxCell>
        <mxCell id="mz65zkfkWfSOpmvl6GEh-81" style="edgeStyle=orthogonalEdgeStyle;orthogonalLoop=1;jettySize=auto;html=1;entryX=0;entryY=0.5;entryDx=0;entryDy=0;entryPerimeter=0;curved=1;" edge="1" parent="1" source="mz65zkfkWfSOpmvl6GEh-65" target="mz65zkfkWfSOpmvl6GEh-84">
          <mxGeometry relative="1" as="geometry">
            <mxPoint x="1150" y="308" as="targetPoint" />
          </mxGeometry>
        </mxCell>
        <mxCell id="mz65zkfkWfSOpmvl6GEh-82" style="edgeStyle=orthogonalEdgeStyle;orthogonalLoop=1;jettySize=auto;html=1;entryX=0.25;entryY=1;entryDx=0;entryDy=0;entryPerimeter=0;curved=1;" edge="1" parent="1" source="mz65zkfkWfSOpmvl6GEh-79" target="mz65zkfkWfSOpmvl6GEh-76">
          <mxGeometry relative="1" as="geometry" />
        </mxCell>
        <mxCell id="mz65zkfkWfSOpmvl6GEh-83" style="edgeStyle=orthogonalEdgeStyle;orthogonalLoop=1;jettySize=auto;html=1;entryX=0.75;entryY=1;entryDx=0;entryDy=0;entryPerimeter=0;curved=1;" edge="1" parent="1" source="mz65zkfkWfSOpmvl6GEh-80" target="mz65zkfkWfSOpmvl6GEh-76">
          <mxGeometry relative="1" as="geometry" />
        </mxCell>
        <mxCell id="mz65zkfkWfSOpmvl6GEh-84" value="&lt;span style=&quot;font-size: 14px;&quot;&gt;Data queue&lt;br&gt;&lt;/span&gt;" style="sketch=0;points=[[0,0,0],[0.25,0,0],[0.5,0,0],[0.75,0,0],[1,0,0],[0,1,0],[0.25,1,0],[0.5,1,0],[0.75,1,0],[1,1,0],[0,0.25,0],[0,0.5,0],[0,0.75,0],[1,0.25,0],[1,0.5,0],[1,0.75,0]];outlineConnect=0;fontColor=#232F3E;fillColor=#E7157B;strokeColor=#ffffff;dashed=0;verticalLabelPosition=bottom;verticalAlign=top;align=center;html=1;fontSize=12;fontStyle=0;aspect=fixed;shape=mxgraph.aws4.resourceIcon;resIcon=mxgraph.aws4.sqs;" vertex="1" parent="1">
          <mxGeometry x="1190" y="269" width="78" height="78" as="geometry" />
        </mxCell>
        <mxCell id="mz65zkfkWfSOpmvl6GEh-85" style="edgeStyle=orthogonalEdgeStyle;orthogonalLoop=1;jettySize=auto;html=1;entryX=0.5;entryY=0;entryDx=0;entryDy=0;entryPerimeter=0;curved=1;startArrow=classic;startFill=1;exitX=0.33;exitY=0;exitDx=0;exitDy=0;exitPerimeter=0;" edge="1" parent="1" source="mz65zkfkWfSOpmvl6GEh-69" target="mz65zkfkWfSOpmvl6GEh-84">
          <mxGeometry relative="1" as="geometry">
            <Array as="points">
              <mxPoint x="1436" y="170" />
              <mxPoint x="1229" y="170" />
            </Array>
            <mxPoint x="1189" y="269" as="targetPoint" />
          </mxGeometry>
        </mxCell>
        <mxCell id="mz65zkfkWfSOpmvl6GEh-86" value="1) Data messages enqueued." style="text;html=1;strokeColor=none;fillColor=none;align=center;verticalAlign=middle;whiteSpace=wrap;rounded=0;fontColor=#178BFF;" vertex="1" parent="1">
          <mxGeometry x="1100" y="300" width="90" height="58" as="geometry" />
        </mxCell>
        <mxCell id="mz65zkfkWfSOpmvl6GEh-87" value="2) Lambda triggered by event source." style="text;html=1;strokeColor=none;fillColor=none;align=center;verticalAlign=middle;whiteSpace=wrap;rounded=0;fontColor=#178BFF;" vertex="1" parent="1">
          <mxGeometry x="1290" y="300" width="90" height="58" as="geometry" />
        </mxCell>
        <mxCell id="mz65zkfkWfSOpmvl6GEh-88" value="3) Dequeue messages for data processing and calculation." style="text;html=1;strokeColor=none;fillColor=none;align=center;verticalAlign=middle;whiteSpace=wrap;rounded=0;fontColor=#178BFF;" vertex="1" parent="1">
          <mxGeometry x="1300" y="170" width="90" height="58" as="geometry" />
        </mxCell>
        <mxCell id="mz65zkfkWfSOpmvl6GEh-89" value="4) Query data required for commission calculation." style="text;html=1;strokeColor=none;fillColor=none;align=center;verticalAlign=middle;whiteSpace=wrap;rounded=0;fontColor=#178BFF;" vertex="1" parent="1">
          <mxGeometry x="1510" y="310" width="90" height="58" as="geometry" />
        </mxCell>
        <mxCell id="mz65zkfkWfSOpmvl6GEh-90" value="5) Write result of commission calc. to Core View." style="text;html=1;strokeColor=none;fillColor=none;align=center;verticalAlign=middle;whiteSpace=wrap;rounded=0;fontColor=#178BFF;" vertex="1" parent="1">
          <mxGeometry x="1500" y="130" width="90" height="58" as="geometry" />
        </mxCell>
        <mxCell id="mz65zkfkWfSOpmvl6GEh-91" value="1) Files uploaded to S3." style="text;html=1;strokeColor=none;fillColor=none;align=center;verticalAlign=middle;whiteSpace=wrap;rounded=0;fontColor=#12FF1A;" vertex="1" parent="1">
          <mxGeometry x="1365" y="750" width="90" height="58" as="geometry" />
        </mxCell>
        <mxCell id="mz65zkfkWfSOpmvl6GEh-92" value="2) Lambda triggered by event source." style="text;html=1;strokeColor=none;fillColor=none;align=center;verticalAlign=middle;whiteSpace=wrap;rounded=0;fontColor=#12FF1A;" vertex="1" parent="1">
          <mxGeometry x="1404" y="540" width="90" height="58" as="geometry" />
        </mxCell>
        <mxCell id="mz65zkfkWfSOpmvl6GEh-93" value="3) Parsed data inserted into RDS." style="text;html=1;strokeColor=none;fillColor=none;align=center;verticalAlign=middle;whiteSpace=wrap;rounded=0;fontColor=#12FF1A;" vertex="1" parent="1">
          <mxGeometry x="1570" y="460" width="90" height="58" as="geometry" />
        </mxCell>
      </root>
    </mxGraphModel>
  </diagram>
</mxfile>
